<svg width="212" height="212" viewBox="0 0 212 212" fill="none" xmlns="http://www.w3.org/2000/svg">
<g filter="url(#filter0_d_111_39)">
<g filter="url(#filter1_d_111_39)">
<rect x="6" y="6" width="200" height="200" rx="7" fill="#B49AFF"/>
<rect x="7" y="7" width="198" height="198" rx="6" stroke="#2E2E2E" stroke-width="2"/>
</g>
<path d="M30.0341 64V29.0909H37.4148V44.483H37.875L50.4375 29.0909H59.2841L46.3295 44.7216L59.4375 64H50.608L41.0455 49.6477L37.4148 54.0795V64H30.0341ZM73.0014 64.5114C70.3082 64.5114 67.9901 63.9659 66.0469 62.875C64.1151 61.7727 62.6264 60.2159 61.581 58.2045C60.5355 56.1818 60.0128 53.7898 60.0128 51.0284C60.0128 48.3352 60.5355 45.9716 61.581 43.9375C62.6264 41.9034 64.098 40.3182 65.9957 39.1818C67.9048 38.0455 70.1435 37.4773 72.7116 37.4773C74.4389 37.4773 76.0469 37.7557 77.5355 38.3125C79.0355 38.858 80.3423 39.6818 81.456 40.7841C82.581 41.8864 83.456 43.2727 84.081 44.9432C84.706 46.6023 85.0185 48.5455 85.0185 50.7727V52.767H62.9105V48.267H78.1832C78.1832 47.2216 77.956 46.2955 77.5014 45.4886C77.0469 44.6818 76.4162 44.0511 75.6094 43.5966C74.8139 43.1307 73.8878 42.8977 72.831 42.8977C71.7287 42.8977 70.7514 43.1534 69.8991 43.6648C69.0582 44.1648 68.3991 44.8409 67.9219 45.6932C67.4446 46.5341 67.2003 47.4716 67.1889 48.5057V52.7841C67.1889 54.0795 67.4276 55.1989 67.9048 56.142C68.3935 57.0852 69.081 57.8125 69.9673 58.3239C70.8537 58.8352 71.9048 59.0909 73.1207 59.0909C73.9276 59.0909 74.6662 58.9773 75.3366 58.75C76.0071 58.5227 76.581 58.1818 77.0582 57.7273C77.5355 57.2727 77.8991 56.7159 78.1491 56.0568L84.8651 56.5C84.5241 58.1136 83.8253 59.5227 82.7685 60.7273C81.723 61.9205 80.3707 62.8523 78.7116 63.5227C77.0639 64.1818 75.1605 64.5114 73.0014 64.5114ZM101.689 64.5114C98.9957 64.5114 96.6776 63.9659 94.7344 62.875C92.8026 61.7727 91.3139 60.2159 90.2685 58.2045C89.223 56.1818 88.7003 53.7898 88.7003 51.0284C88.7003 48.3352 89.223 45.9716 90.2685 43.9375C91.3139 41.9034 92.7855 40.3182 94.6832 39.1818C96.5923 38.0455 98.831 37.4773 101.399 37.4773C103.126 37.4773 104.734 37.7557 106.223 38.3125C107.723 38.858 109.03 39.6818 110.143 40.7841C111.268 41.8864 112.143 43.2727 112.768 44.9432C113.393 46.6023 113.706 48.5455 113.706 50.7727V52.767H91.598V48.267H106.871C106.871 47.2216 106.643 46.2955 106.189 45.4886C105.734 44.6818 105.104 44.0511 104.297 43.5966C103.501 43.1307 102.575 42.8977 101.518 42.8977C100.416 42.8977 99.4389 43.1534 98.5866 43.6648C97.7457 44.1648 97.0866 44.8409 96.6094 45.6932C96.1321 46.5341 95.8878 47.4716 95.8764 48.5057V52.7841C95.8764 54.0795 96.1151 55.1989 96.5923 56.142C97.081 57.0852 97.7685 57.8125 98.6548 58.3239C99.5412 58.8352 100.592 59.0909 101.808 59.0909C102.615 59.0909 103.354 58.9773 104.024 58.75C104.695 58.5227 105.268 58.1818 105.746 57.7273C106.223 57.2727 106.587 56.7159 106.837 56.0568L113.553 56.5C113.212 58.1136 112.513 59.5227 111.456 60.7273C110.411 61.9205 109.058 62.8523 107.399 63.5227C105.751 64.1818 103.848 64.5114 101.689 64.5114ZM118.445 73.8182V37.8182H125.604V42.2159H125.928C126.246 41.5114 126.706 40.7955 127.308 40.0682C127.922 39.3295 128.717 38.7159 129.695 38.2273C130.683 37.7273 131.911 37.4773 133.376 37.4773C135.286 37.4773 137.047 37.9773 138.661 38.9773C140.274 39.9659 141.564 41.4602 142.53 43.4602C143.496 45.4489 143.979 47.9432 143.979 50.9432C143.979 53.8636 143.507 56.3295 142.564 58.3409C141.632 60.3409 140.359 61.858 138.746 62.892C137.143 63.9148 135.348 64.4261 133.359 64.4261C131.95 64.4261 130.751 64.1932 129.763 63.7273C128.786 63.2614 127.984 62.6761 127.359 61.9716C126.734 61.2557 126.257 60.5341 125.928 59.8068H125.706V73.8182H118.445ZM125.553 50.9091C125.553 52.4659 125.768 53.8239 126.2 54.983C126.632 56.142 127.257 57.0455 128.075 57.6932C128.893 58.3295 129.888 58.6477 131.058 58.6477C132.24 58.6477 133.24 58.3239 134.058 57.6761C134.876 57.017 135.496 56.108 135.916 54.9489C136.348 53.7784 136.564 52.4318 136.564 50.9091C136.564 49.3977 136.354 48.0682 135.933 46.9205C135.513 45.7727 134.893 44.875 134.075 44.2273C133.257 43.5795 132.251 43.2557 131.058 43.2557C129.876 43.2557 128.876 43.5682 128.058 44.1932C127.251 44.8182 126.632 45.7045 126.2 46.8523C125.768 48 125.553 49.3523 125.553 50.9091ZM62.1136 104.545C62.1136 108.352 61.392 111.591 59.9489 114.261C58.517 116.932 56.5625 118.972 54.0852 120.381C51.6193 121.778 48.8466 122.477 45.767 122.477C42.6648 122.477 39.8807 121.773 37.4148 120.364C34.9489 118.955 33 116.915 31.5682 114.244C30.1364 111.574 29.4205 108.341 29.4205 104.545C29.4205 100.739 30.1364 97.5 31.5682 94.8295C33 92.1591 34.9489 90.125 37.4148 88.7273C39.8807 87.3182 42.6648 86.6136 45.767 86.6136C48.8466 86.6136 51.6193 87.3182 54.0852 88.7273C56.5625 90.125 58.517 92.1591 59.9489 94.8295C61.392 97.5 62.1136 100.739 62.1136 104.545ZM54.6307 104.545C54.6307 102.08 54.2614 100 53.5227 98.3068C52.7955 96.6136 51.767 95.3295 50.4375 94.4545C49.108 93.5795 47.5511 93.142 45.767 93.142C43.983 93.142 42.4261 93.5795 41.0966 94.4545C39.767 95.3295 38.733 96.6136 37.9943 98.3068C37.267 100 36.9034 102.08 36.9034 104.545C36.9034 107.011 37.267 109.091 37.9943 110.784C38.733 112.477 39.767 113.761 41.0966 114.636C42.4261 115.511 43.983 115.949 45.767 115.949C47.5511 115.949 49.108 115.511 50.4375 114.636C51.767 113.761 52.7955 112.477 53.5227 110.784C54.2614 109.091 54.6307 107.011 54.6307 104.545ZM74.706 106.864V122H67.4446V95.8182H74.3651V100.438H74.6719C75.2514 98.9148 76.223 97.7102 77.5866 96.8239C78.9503 95.9261 80.6037 95.4773 82.5469 95.4773C84.3651 95.4773 85.9503 95.875 87.3026 96.6705C88.6548 97.4659 89.706 98.6023 90.456 100.08C91.206 101.545 91.581 103.295 91.581 105.33V122H84.3196V106.625C84.331 105.023 83.9219 103.773 83.0923 102.875C82.2628 101.966 81.1207 101.511 79.6662 101.511C78.6889 101.511 77.8253 101.722 77.0753 102.142C76.3366 102.562 75.7571 103.176 75.3366 103.983C74.9276 104.778 74.7173 105.739 74.706 106.864ZM28.7045 151.176V145.091H57.375V151.176H46.6875V180H39.392V151.176H28.7045ZM69.9929 180.511C67.3452 180.511 65.0554 179.949 63.1236 178.824C61.2031 177.687 59.7202 176.108 58.6747 174.085C57.6293 172.051 57.1065 169.693 57.1065 167.011C57.1065 164.307 57.6293 161.943 58.6747 159.92C59.7202 157.886 61.2031 156.307 63.1236 155.182C65.0554 154.045 67.3452 153.477 69.9929 153.477C72.6406 153.477 74.9247 154.045 76.8452 155.182C78.777 156.307 80.2656 157.886 81.3111 159.92C82.3565 161.943 82.8793 164.307 82.8793 167.011C82.8793 169.693 82.3565 172.051 81.3111 174.085C80.2656 176.108 78.777 177.687 76.8452 178.824C74.9247 179.949 72.6406 180.511 69.9929 180.511ZM70.027 174.886C71.2315 174.886 72.2372 174.545 73.044 173.864C73.8509 173.17 74.4588 172.227 74.8679 171.034C75.2884 169.841 75.4986 168.483 75.4986 166.96C75.4986 165.438 75.2884 164.08 74.8679 162.886C74.4588 161.693 73.8509 160.75 73.044 160.057C72.2372 159.364 71.2315 159.017 70.027 159.017C68.8111 159.017 67.7884 159.364 66.9588 160.057C66.1406 160.75 65.5213 161.693 65.1009 162.886C64.6918 164.08 64.4872 165.438 64.4872 166.96C64.4872 168.483 64.6918 169.841 65.1009 171.034C65.5213 172.227 66.1406 173.17 66.9588 173.864C67.7884 174.545 68.8111 174.886 70.027 174.886ZM87.6009 189.818V153.818H94.7599V158.216H95.0838C95.402 157.511 95.8622 156.795 96.4645 156.068C97.0781 155.33 97.8736 154.716 98.8509 154.227C99.8395 153.727 101.067 153.477 102.533 153.477C104.442 153.477 106.203 153.977 107.817 154.977C109.43 155.966 110.72 157.46 111.686 159.46C112.652 161.449 113.135 163.943 113.135 166.943C113.135 169.864 112.663 172.33 111.72 174.341C110.788 176.341 109.516 177.858 107.902 178.892C106.3 179.915 104.504 180.426 102.516 180.426C101.107 180.426 99.9077 180.193 98.919 179.727C97.9418 179.261 97.1406 178.676 96.5156 177.972C95.8906 177.256 95.4134 176.534 95.0838 175.807H94.8622V189.818H87.6009ZM94.7088 166.909C94.7088 168.466 94.9247 169.824 95.3565 170.983C95.7884 172.142 96.4134 173.045 97.2315 173.693C98.0497 174.33 99.044 174.648 100.214 174.648C101.396 174.648 102.396 174.324 103.214 173.676C104.033 173.017 104.652 172.108 105.072 170.949C105.504 169.778 105.72 168.432 105.72 166.909C105.72 165.398 105.51 164.068 105.089 162.92C104.669 161.773 104.05 160.875 103.232 160.227C102.413 159.58 101.408 159.256 100.214 159.256C99.0327 159.256 98.0327 159.568 97.2145 160.193C96.4077 160.818 95.7884 161.705 95.3565 162.852C94.9247 164 94.7088 165.352 94.7088 166.909Z" fill="#404040"/>
</g>
<rect x="15.5" y="15.5" width="181" height="180" rx="5.5" stroke="black"/>
<defs>
<filter id="filter0_d_111_39" x="0" y="0" width="212" height="212" filterUnits="userSpaceOnUse" color-interpolation-filters="sRGB">
<feFlood flood-opacity="0" result="BackgroundImageFix"/>
<feColorMatrix in="SourceAlpha" type="matrix" values="0 0 0 0 0 0 0 0 0 0 0 0 0 0 0 0 0 0 127 0" result="hardAlpha"/>
<feOffset/>
<feGaussianBlur stdDeviation="3"/>
<feComposite in2="hardAlpha" operator="out"/>
<feColorMatrix type="matrix" values="0 0 0 0 0 0 0 0 0 0 0 0 0 0 0 0 0 0 1 0"/>
<feBlend mode="normal" in2="BackgroundImageFix" result="effect1_dropShadow_111_39"/>
<feBlend mode="normal" in="SourceGraphic" in2="effect1_dropShadow_111_39" result="shape"/>
</filter>
<filter id="filter1_d_111_39" x="0" y="0" width="212" height="212" filterUnits="userSpaceOnUse" color-interpolation-filters="sRGB">
<feFlood flood-opacity="0" result="BackgroundImageFix"/>
<feColorMatrix in="SourceAlpha" type="matrix" values="0 0 0 0 0 0 0 0 0 0 0 0 0 0 0 0 0 0 127 0" result="hardAlpha"/>
<feOffset/>
<feGaussianBlur stdDeviation="3"/>
<feComposite in2="hardAlpha" operator="out"/>
<feColorMatrix type="matrix" values="0 0 0 0 0 0 0 0 0 0 0 0 0 0 0 0 0 0 0.5 0"/>
<feBlend mode="normal" in2="BackgroundImageFix" result="effect1_dropShadow_111_39"/>
<feBlend mode="normal" in="SourceGraphic" in2="effect1_dropShadow_111_39" result="shape"/>
</filter>
</defs>
</svg>
